<svg width="15" height="25" viewBox="0 0 15 25" fill="none" xmlns="http://www.w3.org/2000/svg">
<path d="M7.26409 6.04073C7.41199 6.04073 7.55844 6.0116 7.69508 5.955C7.83173 5.8984 7.95588 5.81544 8.06047 5.71086C8.16505 5.60628 8.24801 5.48212 8.30461 5.34547C8.36121 5.20883 8.39034 5.06238 8.39034 4.91448C8.39034 3.78237 9.31146 2.86139 10.4434 2.86139H13.6238C13.9225 2.86139 14.209 2.74273 14.4202 2.53152C14.6314 2.32031 14.7501 2.03384 14.7501 1.73514C14.7501 1.43644 14.6314 1.14997 14.4202 0.938759C14.209 0.727545 13.9225 0.608887 13.6238 0.608887L10.4434 0.608887C8.06928 0.608887 6.13783 2.54034 6.13783 4.91448C6.13783 5.21318 6.25649 5.49964 6.4677 5.71086C6.67892 5.92207 6.96538 6.04073 7.26409 6.04073ZM13.3823 9.5629H1.86423C1.56553 9.5629 1.27906 9.68156 1.06785 9.89277C0.856634 10.104 0.737976 10.3904 0.737976 10.6891C0.737976 10.9879 0.856634 11.2743 1.06785 11.4855C1.27906 11.6967 1.56553 11.8154 1.86423 11.8154H6.13798V23.4826C6.13798 23.7813 6.25664 24.0678 6.46785 24.279C6.67907 24.4902 6.96554 24.6089 7.26424 24.6089C7.56294 24.6089 7.8494 24.4902 8.06062 24.279C8.27183 24.0678 8.39049 23.7813 8.39049 23.4826V11.8154H13.3825C13.6812 11.8154 13.9677 11.6967 14.1789 11.4855C14.39 11.2743 14.5087 10.9878 14.5087 10.6891C14.5086 10.3904 14.39 10.1039 14.1787 9.89272C13.9675 9.68152 13.681 9.56288 13.3823 9.5629Z" fill="white"/>
</svg>
