<svg width="25" height="25" viewBox="0 0 25 25" fill="none" xmlns="http://www.w3.org/2000/svg">
<path d="M18.1208 0.608887H7.36709C3.7152 0.608887 0.744141 3.58009 0.744141 7.23198V17.9857C0.744141 21.6377 3.7152 24.6087 7.36709 24.6087H18.1208C21.7729 24.6087 24.744 21.6375 24.744 17.9857V7.23198C24.7441 3.58009 21.7729 0.608887 18.1208 0.608887ZM22.6148 17.9857C22.6148 20.4635 20.5988 22.4794 18.1209 22.4794H7.36709C4.88934 22.4795 2.87352 20.4635 2.87352 17.9857V7.23198C2.87352 4.75423 4.88934 2.73827 7.36709 2.73827H18.1208C20.5987 2.73827 22.6146 4.75423 22.6146 7.23198V17.9857H22.6148Z" fill="white"/>
<path d="M12.7441 6.42496C9.3341 6.42496 6.55994 9.19912 6.55994 12.6091C6.55994 16.019 9.3341 18.793 12.7441 18.793C16.1541 18.793 18.9282 16.019 18.9282 12.6091C18.9282 9.19912 16.1541 6.42496 12.7441 6.42496ZM12.7441 16.6635C10.5084 16.6635 8.68932 14.8447 8.68932 12.609C8.68932 10.3731 10.5082 8.5542 12.7441 8.5542C14.9799 8.5542 16.7989 10.3731 16.7989 12.609C16.7989 14.8447 14.9798 16.6635 12.7441 16.6635ZM19.1876 4.61938C18.7773 4.61938 18.3743 4.78548 18.0846 5.07649C17.7919 5.36968 17.6271 5.76669 17.6261 6.18093C17.6261 6.59134 17.7936 6.99436 18.0846 7.28537C18.3742 7.57497 18.7773 7.74248 19.1876 7.74248C19.5993 7.74248 20.001 7.57497 20.292 7.28537C20.5831 6.99436 20.7492 6.59119 20.7492 6.18093C20.7492 5.76925 20.5831 5.36609 20.292 5.07649C20.0025 4.78548 19.5993 4.61938 19.1876 4.61938Z" fill="white"/>
</svg>
