<svg width="25" height="23" viewBox="0 0 25 23" fill="none" xmlns="http://www.w3.org/2000/svg">
<path d="M20.0647 22.2055C19.8772 22.2055 19.691 22.15 19.5313 22.0417L13.4967 17.9483L10.2601 20.2772C10.135 20.3671 9.98999 20.4253 9.83743 20.4467C9.68487 20.4682 9.5294 20.4522 9.3844 20.4001C9.2394 20.3481 9.10922 20.2616 9.00508 20.1481C8.90094 20.0346 8.82596 19.8974 8.7866 19.7485L7.16146 13.5897L1.35466 11.3693C1.17604 11.301 1.02219 11.1804 0.913244 11.0232C0.804299 10.866 0.745326 10.6796 0.74404 10.4883C0.742754 10.2971 0.799213 10.1099 0.906034 9.95125C1.01285 9.79261 1.16506 9.6699 1.34276 9.59917L23.4224 0.813536C23.5818 0.745882 23.7567 0.723087 23.9282 0.747615C24.0996 0.772143 24.2611 0.843061 24.3952 0.952705C24.5293 1.06235 24.6308 1.20655 24.6889 1.36973C24.747 1.5329 24.7594 1.70885 24.7247 1.87855L20.9978 21.4333C20.9565 21.6505 20.8406 21.8464 20.6703 21.9874C20.4999 22.1284 20.2858 22.2055 20.0647 22.2055ZM14.0266 16.0118L19.4019 19.6579L22.3019 4.44217L11.8281 14.5206L14.0012 15.9947C14.01 16.0002 14.0183 16.006 14.0266 16.0118ZM9.5518 15.201L10.2715 17.9282L11.8222 16.8124L9.79171 15.435C9.69847 15.3719 9.61723 15.2926 9.5518 15.201ZM4.30791 10.4642L8.29513 11.9886C8.43593 12.0425 8.5619 12.129 8.66262 12.2412C8.76334 12.3533 8.83593 12.4878 8.87438 12.6336L9.38004 14.55C9.4034 14.3271 9.50474 14.1196 9.66618 13.9642L19.6462 4.3611L4.30791 10.4642Z" fill="white"/>
</svg>
