<svg width="25" height="25" viewBox="0 0 25 25" fill="none" xmlns="http://www.w3.org/2000/svg">
<g clip-path="url(#clip0_411_594)">
<path d="M24.5825 5.87586C24.4455 5.67854 24.2357 5.54371 23.9994 5.501C23.763 5.45829 23.5193 5.5112 23.3219 5.6481L20.5096 7.5995C20.384 7.68666 20.2825 7.80421 20.2145 7.94119C20.1466 8.07817 20.1144 8.23012 20.121 8.38289C20.1289 8.5607 20.133 8.73867 20.1331 8.91666C20.1331 14.6653 15.7588 20.6113 8.43856 20.6113C6.95592 20.612 5.48679 20.3297 4.11006 19.7794L8.45015 18.5655C8.56547 18.5341 8.67345 18.4803 8.76786 18.407C8.86227 18.3337 8.94125 18.2425 9.00025 18.1386C9.05925 18.0347 9.09709 17.9201 9.11161 17.8015C9.12613 17.6829 9.11702 17.5625 9.08483 17.4475C9.05263 17.3324 8.99798 17.2248 8.92402 17.1309C8.85006 17.0371 8.75826 16.9588 8.6539 16.9005C8.54954 16.8423 8.43469 16.8053 8.31596 16.7917C8.19724 16.778 8.07699 16.788 7.96215 16.8211L1.40582 18.655C1.23757 18.702 1.08652 18.7967 0.970876 18.9277C0.855234 19.0587 0.779939 19.2203 0.754066 19.3931C0.728194 19.5659 0.752848 19.7424 0.825057 19.9015C0.897266 20.0606 1.01395 20.1954 1.16104 20.2897C3.33228 21.6836 5.8584 22.424 8.43856 22.4229C13.5175 22.4229 16.6985 20.0233 18.4728 18.0104C20.6792 15.5073 21.9445 12.1928 21.9445 8.91678L21.9442 8.80906L24.3547 7.1365C24.552 6.99949 24.6869 6.78973 24.7296 6.55333C24.7723 6.31693 24.7194 6.07325 24.5825 5.87586ZM2.74327 5.59339L11.8711 10.2204C12.0248 10.2984 12.1976 10.331 12.3692 10.3141C12.5407 10.2973 12.7039 10.2318 12.8395 10.1254C12.9752 10.019 13.0776 9.87616 13.1349 9.71358C13.1922 9.55101 13.2018 9.37546 13.1628 9.20758C13.1019 8.94374 13.0714 8.67382 13.0717 8.40306C13.0717 6.46083 14.6522 4.88065 16.5947 4.88065C17.5658 4.88065 18.5033 5.28605 19.1665 5.993C19.2878 6.12224 19.4443 6.21307 19.6167 6.25422C19.7891 6.29537 19.9698 6.28504 20.1364 6.2245L22.9535 5.20091C23.0661 5.16092 23.1697 5.09904 23.2582 5.01884C23.3468 4.93864 23.4186 4.84171 23.4696 4.73363C23.5205 4.62555 23.5496 4.50846 23.5551 4.3891C23.5606 4.26974 23.5424 4.15047 23.5016 4.03817C23.4608 3.92586 23.3982 3.82274 23.3173 3.73474C23.2365 3.64675 23.1391 3.57561 23.0306 3.52544C22.9222 3.47527 22.8049 3.44705 22.6855 3.44241C22.5661 3.43777 22.447 3.4568 22.335 3.4984L20.0425 4.3313C19.085 3.52316 17.8588 3.06909 16.5947 3.06909C13.8257 3.06909 11.5426 5.1898 11.2846 7.89211L3.56228 3.97771C3.45612 3.92316 3.34022 3.89012 3.22124 3.88051C3.10227 3.87091 2.98257 3.88491 2.86903 3.92171C2.75548 3.95852 2.65033 4.01741 2.55963 4.09499C2.46892 4.17257 2.39444 4.26732 2.34047 4.37378C2.2865 4.48025 2.25411 4.59633 2.24516 4.71535C2.2362 4.83438 2.25086 4.954 2.2883 5.06734C2.32573 5.18067 2.38519 5.2855 2.46328 5.37578C2.54136 5.46606 2.63651 5.54001 2.74327 5.59339ZM2.2764 11.0172L4.28203 11.5709C4.36068 11.5927 4.44193 11.6038 4.52355 11.6037C4.74285 11.6039 4.95475 11.5245 5.11992 11.3802C5.28509 11.236 5.39232 11.0367 5.42171 10.8194C5.45109 10.6021 5.40064 10.3815 5.2797 10.1985C5.15877 10.0156 4.97557 9.88277 4.76411 9.82467L2.75849 9.27098C2.52871 9.21252 2.28517 9.24648 2.08014 9.36555C1.87511 9.48463 1.72494 9.67933 1.66184 9.90788C1.59874 10.1364 1.62776 10.3806 1.74266 10.588C1.85755 10.7954 2.04918 10.9495 2.2764 11.0172ZM4.03483 13.713C3.79481 13.7221 3.56825 13.8262 3.40497 14.0023C3.24168 14.1785 3.15505 14.4123 3.16413 14.6523C3.17321 14.8923 3.27728 15.1189 3.45343 15.2822C3.62958 15.4455 3.86339 15.5322 4.10342 15.5231L6.10349 15.4473C6.22235 15.4428 6.33917 15.4149 6.44726 15.3652C6.55535 15.3156 6.65261 15.2452 6.73347 15.1579C6.81434 15.0707 6.87723 14.9684 6.91855 14.8568C6.95987 14.7453 6.97882 14.6267 6.97431 14.5078C6.95535 14.008 6.53377 13.6187 6.03502 13.6371L4.03483 13.713Z" fill="white"/>
</g>
<defs>
<clipPath id="clip0_411_594">
<rect width="24" height="24" fill="white" transform="translate(0.744019 0.746094)"/>
</clipPath>
</defs>
</svg>
