<svg width="25" height="25" viewBox="0 0 25 25" fill="none" xmlns="http://www.w3.org/2000/svg">
<g clip-path="url(#clip0_411_587)">
<path d="M20.5549 3.95166H4.93328C2.62329 3.95166 0.744019 5.8315 0.744019 8.14207V17.076C0.744019 19.3865 2.62329 21.2663 4.93328 21.2663H20.555C22.8649 21.2663 24.7441 19.3865 24.7441 17.076V8.14207C24.744 5.8315 22.8647 3.95166 20.5549 3.95166ZM23.0271 17.0759C23.0271 18.4397 21.918 19.5492 20.5549 19.5492H4.93328C3.57002 19.5492 2.46098 18.4397 2.46098 17.0759V8.14196C2.46098 6.77812 3.57002 5.66862 4.93328 5.66862H20.555C21.9181 5.66862 23.0272 6.77812 23.0272 8.14196L23.0271 17.0759Z" fill="white"/>
<path d="M17.3522 11.8916L10.9885 7.69647C10.859 7.61123 10.7089 7.56261 10.5541 7.55577C10.3993 7.54893 10.2455 7.58411 10.109 7.65759C9.97257 7.73108 9.85855 7.84012 9.77905 7.97315C9.69956 8.10619 9.65754 8.25826 9.65747 8.41324V16.8045C9.65753 17.0321 9.74798 17.2504 9.90894 17.4114C10.0699 17.5724 10.2882 17.6629 10.5158 17.663C10.6839 17.663 10.8482 17.6137 10.9885 17.5211L17.3522 13.325C17.4708 13.2468 17.5682 13.1404 17.6355 13.0153C17.7029 12.8902 17.7381 12.7504 17.7381 12.6083C17.7381 12.4662 17.7029 12.3264 17.6355 12.2013C17.5682 12.0762 17.4708 11.9698 17.3522 11.8916ZM11.3744 15.2101V10.0074L15.3201 12.6083L11.3744 15.2101Z" fill="white"/>
</g>
<defs>
<clipPath id="clip0_411_587">
<rect width="24" height="24" fill="white" transform="translate(0.744019 0.608887)"/>
</clipPath>
</defs>
</svg>
